<svg xmlns="http://www.w3.org/2000/svg" width="900" height="600" viewBox="0 0 900 600"><rect width="100%" height="100%" fill="white"/><text x="450" y="28" text-anchor="middle" font-family="Arial" font-size="20">TSP 1.0 — Figure 3: structural memory changes future trajectory</text><line x1="80" y1="530" x2="870" y2="530" stroke="black"/><line x1="80" y1="55" x2="80" y2="530" stroke="black"/><line x1="80" y1="482.5" x2="870" y2="482.5" stroke="#555" stroke-dasharray="7 5"/><text x="865" y="476.5" text-anchor="end" font-family="Arial" font-size="11">canonical attractor u*=0.5</text><polyline fill="none" stroke="#1f77b4" stroke-width="2" points="80.0,435.0 93.4,441.4 106.8,445.7 120.2,448.8 133.6,451.2 146.9,453.2 160.3,454.9 173.7,456.4 187.1,457.7 200.5,459.0 213.9,460.1 227.3,461.2 240.7,462.2 254.1,463.2 267.5,464.1 280.8,465.0 294.2,465.8 307.6,466.6 321.0,467.3 334.4,468.0 347.8,468.6 361.2,469.2 374.6,469.7 388.0,470.2 401.4,470.7 414.7,471.2 428.1,471.6 441.5,472.0 454.9,472.3 468.3,472.6 481.7,472.9 495.1,473.2 508.5,473.5 521.9,473.7 535.3,474.0 548.6,474.2 562.0,474.4 575.4,474.5 588.8,474.7 602.2,474.8 615.6,475.0 629.0,475.1 642.4,475.2 655.8,475.3 669.2,475.4 682.5,475.5 695.9,475.6 709.3,475.7 722.7,475.8 736.1,475.8 749.5,475.9 762.9,476.0 776.3,476.0 789.7,476.1 803.1,476.1 816.4,476.2 829.8,476.2 843.2,476.2 856.6,476.3 870.0,476.3"/><line x1="600" y1="75" x2="625" y2="75" stroke="#1f77b4" stroke-width="2"/><text x="632" y="79" font-family="Arial" font-size="11">u0=1, m0=0</text><polyline fill="none" stroke="#ff7f0e" stroke-width="2" points="80.0,435.0 82.3,434.4 84.7,433.9 87.0,433.4 89.3,432.9 91.7,432.4 94.0,431.9 96.3,431.4 98.6,430.9 101.0,430.4 103.3,429.9 105.6,429.4 108.0,429.0 110.3,428.5 112.6,428.0 115.0,427.5 117.3,427.0 119.6,426.6 122.0,426.0 124.3,425.5 126.6,425.0 128.9,424.5 131.3,423.9 133.6,423.4 135.9,422.8 138.3,422.2 140.6,421.5 142.9,420.9 145.3,420.2 147.6,419.5 149.9,418.7 152.3,417.9 154.6,417.1 156.9,416.2 159.2,415.3 161.6,414.3 163.9,413.2 166.2,412.0 168.6,410.8 170.9,409.5 173.2,408.0 175.6,406.5 177.9,404.8 180.2,402.9 182.6,400.8 184.9,398.5 187.2,395.9 189.5,393.0 191.9,389.7 194.2,385.8 196.5,381.3 198.9,376.0 201.2,369.5 203.5,361.4 205.9,351.0 208.2,336.7 210.5,315.7 212.9,280.3 215.2,200.9 217.5,55.0"/><line x1="600" y1="93" x2="625" y2="93" stroke="#ff7f0e" stroke-width="2"/><text x="632" y="97" font-family="Arial" font-size="11">u0=1, m0=0.7</text><text x="475" y="582" text-anchor="middle" font-family="Arial" font-size="14">Dimensionless time tau</text><text x="20" y="292.5" transform="rotate(-90 20 292.5)" text-anchor="middle" font-family="Arial" font-size="14">Dimensionless state u(tau)</text></svg>